<mxfile host="Electron" modified="2023-12-19T09:02:15.135Z" agent="Mozilla/5.0 (Windows NT 10.0; Win64; x64) AppleWebKit/537.36 (KHTML, like Gecko) draw.io/22.1.2 Chrome/114.0.5735.289 Electron/25.9.4 Safari/537.36" etag="6vTCXSGdY8BMOgToGd2g" version="22.1.2" type="device">
  <diagram id="h28vGyd44cognT9YHxZe" name="第 1 页">
    <mxGraphModel dx="1036" dy="625" grid="0" gridSize="10" guides="0" tooltips="1" connect="0" arrows="0" fold="1" page="1" pageScale="1" pageWidth="1169" pageHeight="1654" background="none" math="0" shadow="0">
      <root>
        <mxCell id="0" />
        <mxCell id="1" parent="0" />
        <mxCell id="bhbYjNJHL-G9m__CyBwY-3" value="" style="whiteSpace=wrap;html=1;aspect=fixed;fillColor=#dae8fc;strokeColor=#6c8ebf;" parent="1" vertex="1">
          <mxGeometry x="142" y="312" width="80" height="80" as="geometry" />
        </mxCell>
        <mxCell id="bhbYjNJHL-G9m__CyBwY-7" value="" style="whiteSpace=wrap;html=1;aspect=fixed;fillColor=#d5e8d4;strokeColor=#82b366;" parent="1" vertex="1">
          <mxGeometry x="287" y="352" width="37" height="37" as="geometry" />
        </mxCell>
        <mxCell id="bhbYjNJHL-G9m__CyBwY-458" value="" style="whiteSpace=wrap;html=1;aspect=fixed;fillColor=#f8cecc;strokeColor=#b85450;" parent="1" vertex="1">
          <mxGeometry x="480" y="335" width="52" height="52" as="geometry" />
        </mxCell>
        <mxCell id="bhbYjNJHL-G9m__CyBwY-460" value="" style="whiteSpace=wrap;html=1;aspect=fixed;fillColor=#f8cecc;strokeColor=#b85450;" parent="1" vertex="1">
          <mxGeometry x="490" y="345" width="52" height="52" as="geometry" />
        </mxCell>
        <mxCell id="bhbYjNJHL-G9m__CyBwY-461" value="" style="whiteSpace=wrap;html=1;aspect=fixed;fillColor=#f8cecc;strokeColor=#b85450;" parent="1" vertex="1">
          <mxGeometry x="500" y="355" width="52" height="52" as="geometry" />
        </mxCell>
        <mxCell id="bhbYjNJHL-G9m__CyBwY-462" value="" style="whiteSpace=wrap;html=1;aspect=fixed;fillColor=#dae8fc;strokeColor=#6c8ebf;" parent="1" vertex="1">
          <mxGeometry x="152" y="322" width="80" height="80" as="geometry" />
        </mxCell>
        <mxCell id="bhbYjNJHL-G9m__CyBwY-463" value="" style="whiteSpace=wrap;html=1;aspect=fixed;fillColor=#dae8fc;strokeColor=#6c8ebf;" parent="1" vertex="1">
          <mxGeometry x="165" y="340" width="80" height="80" as="geometry" />
        </mxCell>
        <mxCell id="bhbYjNJHL-G9m__CyBwY-464" value="[C,H,W]" style="text;html=1;align=center;verticalAlign=middle;resizable=0;points=[];autosize=1;strokeColor=none;fillColor=none;" parent="1" vertex="1">
          <mxGeometry x="202" y="429" width="52" height="18" as="geometry" />
        </mxCell>
        <mxCell id="bhbYjNJHL-G9m__CyBwY-465" value="[K,K]" style="text;html=1;align=center;verticalAlign=middle;resizable=0;points=[];autosize=1;strokeColor=none;fillColor=none;" parent="1" vertex="1">
          <mxGeometry x="363" y="348" width="36" height="18" as="geometry" />
        </mxCell>
        <mxCell id="bhbYjNJHL-G9m__CyBwY-466" value="N个" style="text;html=1;align=center;verticalAlign=middle;resizable=0;points=[];autosize=1;strokeColor=none;fillColor=none;" parent="1" vertex="1">
          <mxGeometry x="363" y="414" width="31" height="18" as="geometry" />
        </mxCell>
        <mxCell id="bhbYjNJHL-G9m__CyBwY-468" value="" style="whiteSpace=wrap;html=1;aspect=fixed;fillColor=#f8cecc;strokeColor=#b85450;" parent="1" vertex="1">
          <mxGeometry x="510" y="365" width="52" height="52" as="geometry" />
        </mxCell>
        <mxCell id="bhbYjNJHL-G9m__CyBwY-469" value="" style="whiteSpace=wrap;html=1;aspect=fixed;fillColor=#f8cecc;strokeColor=#b85450;" parent="1" vertex="1">
          <mxGeometry x="520" y="375" width="52" height="52" as="geometry" />
        </mxCell>
        <mxCell id="bhbYjNJHL-G9m__CyBwY-470" value="" style="whiteSpace=wrap;html=1;aspect=fixed;fillColor=#f8cecc;strokeColor=#b85450;" parent="1" vertex="1">
          <mxGeometry x="530" y="385" width="52" height="52" as="geometry" />
        </mxCell>
        <mxCell id="bhbYjNJHL-G9m__CyBwY-472" value="[N, H&lt;sub&gt;new&lt;/sub&gt;,W&lt;sub&gt;new&lt;/sub&gt;]" style="text;html=1;align=center;verticalAlign=middle;resizable=0;points=[];autosize=1;strokeColor=none;fillColor=none;" parent="1" vertex="1">
          <mxGeometry x="510" y="446" width="92" height="23" as="geometry" />
        </mxCell>
        <mxCell id="bhbYjNJHL-G9m__CyBwY-473" value="" style="html=1;whiteSpace=wrap;shape=isoCube2;backgroundOutline=1;isoAngle=15;container=0;fillColor=#dae8fc;strokeColor=#6c8ebf;" parent="1" vertex="1">
          <mxGeometry x="120" y="470" width="90" height="190" as="geometry">
            <mxRectangle x="120" y="470" width="50" height="44" as="alternateBounds" />
          </mxGeometry>
        </mxCell>
        <mxCell id="bhbYjNJHL-G9m__CyBwY-474" value="H" style="text;html=1;align=center;verticalAlign=middle;resizable=0;points=[];autosize=1;strokeColor=none;fillColor=none;" parent="1" vertex="1">
          <mxGeometry x="89" y="561" width="19" height="18" as="geometry" />
        </mxCell>
        <mxCell id="bhbYjNJHL-G9m__CyBwY-475" value="W" style="text;html=1;align=center;verticalAlign=middle;resizable=0;points=[];autosize=1;strokeColor=none;fillColor=none;" parent="1" vertex="1">
          <mxGeometry x="127" y="647" width="21" height="18" as="geometry" />
        </mxCell>
        <mxCell id="bhbYjNJHL-G9m__CyBwY-476" value="C" style="text;html=1;align=center;verticalAlign=middle;resizable=0;points=[];autosize=1;strokeColor=none;fillColor=none;" parent="1" vertex="1">
          <mxGeometry x="192" y="648" width="19" height="18" as="geometry" />
        </mxCell>
        <mxCell id="bhbYjNJHL-G9m__CyBwY-477" value="" style="html=1;whiteSpace=wrap;shape=isoCube2;backgroundOutline=1;isoAngle=15;container=0;fillColor=#d5e8d4;strokeColor=#82b366;" parent="1" vertex="1">
          <mxGeometry x="339" y="561" width="73" height="81" as="geometry">
            <mxRectangle x="120" y="470" width="50" height="44" as="alternateBounds" />
          </mxGeometry>
        </mxCell>
        <mxCell id="bhbYjNJHL-G9m__CyBwY-478" value="K" style="text;html=1;align=center;verticalAlign=middle;resizable=0;points=[];autosize=1;strokeColor=none;fillColor=none;" parent="1" vertex="1">
          <mxGeometry x="309" y="602" width="18" height="18" as="geometry" />
        </mxCell>
        <mxCell id="bhbYjNJHL-G9m__CyBwY-479" value="K" style="text;html=1;align=center;verticalAlign=middle;resizable=0;points=[];autosize=1;strokeColor=none;fillColor=none;" parent="1" vertex="1">
          <mxGeometry x="333" y="648" width="18" height="18" as="geometry" />
        </mxCell>
        <mxCell id="bhbYjNJHL-G9m__CyBwY-480" value="C" style="text;html=1;align=center;verticalAlign=middle;resizable=0;points=[];autosize=1;strokeColor=none;fillColor=none;" parent="1" vertex="1">
          <mxGeometry x="393" y="648" width="19" height="18" as="geometry" />
        </mxCell>
        <mxCell id="bhbYjNJHL-G9m__CyBwY-482" value="" style="html=1;whiteSpace=wrap;shape=isoCube2;backgroundOutline=1;isoAngle=15;container=0;fillColor=#e1d5e7;strokeColor=#9673a6;" parent="1" vertex="1">
          <mxGeometry x="548" y="457" width="159" height="198" as="geometry">
            <mxRectangle x="120" y="470" width="50" height="44" as="alternateBounds" />
          </mxGeometry>
        </mxCell>
        <mxCell id="bhbYjNJHL-G9m__CyBwY-483" value="W&lt;span style=&quot;font-size: 10px&quot;&gt;new&lt;/span&gt;" style="text;html=1;align=center;verticalAlign=middle;resizable=0;points=[];autosize=1;strokeColor=none;fillColor=none;" parent="1" vertex="1">
          <mxGeometry x="555.5" y="635" width="40" height="20" as="geometry" />
        </mxCell>
        <mxCell id="bhbYjNJHL-G9m__CyBwY-484" value="H&lt;sub&gt;new&lt;/sub&gt;" style="text;html=1;align=center;verticalAlign=middle;resizable=0;points=[];autosize=1;strokeColor=none;fillColor=none;" parent="1" vertex="1">
          <mxGeometry x="511" y="547" width="37" height="23" as="geometry" />
        </mxCell>
        <mxCell id="bhbYjNJHL-G9m__CyBwY-485" value="N" style="text;html=1;align=center;verticalAlign=middle;resizable=0;points=[];autosize=1;strokeColor=none;fillColor=none;" parent="1" vertex="1">
          <mxGeometry x="663.5" y="637" width="19" height="18" as="geometry" />
        </mxCell>
        <mxCell id="bhbYjNJHL-G9m__CyBwY-486" value="" style="html=1;whiteSpace=wrap;shape=isoCube2;backgroundOutline=1;isoAngle=15;container=0;fillColor=#dae8fc;strokeColor=#6c8ebf;" parent="1" vertex="1">
          <mxGeometry x="120" y="784" width="56" height="184" as="geometry">
            <mxRectangle x="120" y="470" width="50" height="44" as="alternateBounds" />
          </mxGeometry>
        </mxCell>
        <mxCell id="bhbYjNJHL-G9m__CyBwY-487" value="H" style="text;html=1;align=center;verticalAlign=middle;resizable=0;points=[];autosize=1;strokeColor=none;fillColor=none;" parent="1" vertex="1">
          <mxGeometry x="101" y="871.5" width="19" height="18" as="geometry" />
        </mxCell>
        <mxCell id="bhbYjNJHL-G9m__CyBwY-488" value="W" style="text;html=1;align=center;verticalAlign=middle;resizable=0;points=[];autosize=1;strokeColor=none;fillColor=none;" parent="1" vertex="1">
          <mxGeometry x="120" y="963" width="21" height="18" as="geometry" />
        </mxCell>
        <mxCell id="bhbYjNJHL-G9m__CyBwY-489" value="C/G" style="text;html=1;align=center;verticalAlign=middle;resizable=0;points=[];autosize=1;strokeColor=none;fillColor=none;" parent="1" vertex="1">
          <mxGeometry x="151" y="963" width="32" height="18" as="geometry" />
        </mxCell>
        <mxCell id="bhbYjNJHL-G9m__CyBwY-490" value="" style="html=1;whiteSpace=wrap;shape=isoCube2;backgroundOutline=1;isoAngle=15;container=0;fillColor=#d5e8d4;strokeColor=#82b366;" parent="1" vertex="1">
          <mxGeometry x="337" y="915" width="35" height="55" as="geometry">
            <mxRectangle x="120" y="470" width="50" height="44" as="alternateBounds" />
          </mxGeometry>
        </mxCell>
        <mxCell id="bhbYjNJHL-G9m__CyBwY-491" value="K" style="text;html=1;align=center;verticalAlign=middle;resizable=0;points=[];autosize=1;strokeColor=none;fillColor=none;" parent="1" vertex="1">
          <mxGeometry x="322" y="933.5" width="18" height="18" as="geometry" />
        </mxCell>
        <mxCell id="bhbYjNJHL-G9m__CyBwY-492" value="K" style="text;html=1;align=center;verticalAlign=middle;resizable=0;points=[];autosize=1;strokeColor=none;fillColor=none;" parent="1" vertex="1">
          <mxGeometry x="336" y="963" width="18" height="18" as="geometry" />
        </mxCell>
        <mxCell id="bhbYjNJHL-G9m__CyBwY-493" value="C/G" style="text;html=1;align=center;verticalAlign=middle;resizable=0;points=[];autosize=1;strokeColor=none;fillColor=none;" parent="1" vertex="1">
          <mxGeometry x="359" y="963" width="32" height="18" as="geometry" />
        </mxCell>
        <mxCell id="bhbYjNJHL-G9m__CyBwY-494" value="N/2个" style="text;html=1;align=center;verticalAlign=middle;resizable=0;points=[];autosize=1;strokeColor=none;fillColor=none;" parent="1" vertex="1">
          <mxGeometry x="334.5" y="897" width="40" height="18" as="geometry" />
        </mxCell>
        <mxCell id="bhbYjNJHL-G9m__CyBwY-495" value="" style="html=1;whiteSpace=wrap;shape=isoCube2;backgroundOutline=1;isoAngle=15;container=0;fillColor=#f8cecc;strokeColor=#b85450;" parent="1" vertex="1">
          <mxGeometry x="682.5" y="784" width="132" height="168" as="geometry">
            <mxRectangle x="120" y="470" width="50" height="44" as="alternateBounds" />
          </mxGeometry>
        </mxCell>
        <mxCell id="bhbYjNJHL-G9m__CyBwY-496" value="W&lt;span style=&quot;font-size: 10px&quot;&gt;new&lt;/span&gt;" style="text;html=1;align=center;verticalAlign=middle;resizable=0;points=[];autosize=1;strokeColor=none;fillColor=none;" parent="1" vertex="1">
          <mxGeometry x="680.5" y="950" width="40" height="20" as="geometry" />
        </mxCell>
        <mxCell id="bhbYjNJHL-G9m__CyBwY-497" value="H&lt;sub&gt;new&lt;/sub&gt;" style="text;html=1;align=center;verticalAlign=middle;resizable=0;points=[];autosize=1;strokeColor=none;fillColor=none;" parent="1" vertex="1">
          <mxGeometry x="636" y="862" width="37" height="23" as="geometry" />
        </mxCell>
        <mxCell id="bhbYjNJHL-G9m__CyBwY-498" value="N" style="text;html=1;align=center;verticalAlign=middle;resizable=0;points=[];autosize=1;strokeColor=none;fillColor=none;" parent="1" vertex="1">
          <mxGeometry x="788.5" y="952" width="19" height="18" as="geometry" />
        </mxCell>
        <mxCell id="bhbYjNJHL-G9m__CyBwY-500" value="" style="html=1;whiteSpace=wrap;shape=isoCube2;backgroundOutline=1;isoAngle=15;container=0;fillColor=#dae8fc;strokeColor=#6c8ebf;" parent="1" vertex="1">
          <mxGeometry x="176" y="762" width="56" height="184" as="geometry">
            <mxRectangle x="120" y="470" width="50" height="44" as="alternateBounds" />
          </mxGeometry>
        </mxCell>
        <mxCell id="bhbYjNJHL-G9m__CyBwY-501" value="C/G" style="text;html=1;align=center;verticalAlign=middle;resizable=0;points=[];autosize=1;strokeColor=none;fillColor=none;" parent="1" vertex="1">
          <mxGeometry x="208" y="934" width="32" height="18" as="geometry" />
        </mxCell>
        <mxCell id="bhbYjNJHL-G9m__CyBwY-512" value="" style="html=1;whiteSpace=wrap;shape=isoCube2;backgroundOutline=1;isoAngle=15;container=0;fillColor=#d5e8d4;strokeColor=#82b366;" parent="1" vertex="1">
          <mxGeometry x="335.5" y="805.5" width="35" height="55" as="geometry">
            <mxRectangle x="120" y="470" width="50" height="44" as="alternateBounds" />
          </mxGeometry>
        </mxCell>
        <mxCell id="bhbYjNJHL-G9m__CyBwY-513" value="K" style="text;html=1;align=center;verticalAlign=middle;resizable=0;points=[];autosize=1;strokeColor=none;fillColor=none;" parent="1" vertex="1">
          <mxGeometry x="320.5" y="824" width="18" height="18" as="geometry" />
        </mxCell>
        <mxCell id="bhbYjNJHL-G9m__CyBwY-514" value="K" style="text;html=1;align=center;verticalAlign=middle;resizable=0;points=[];autosize=1;strokeColor=none;fillColor=none;" parent="1" vertex="1">
          <mxGeometry x="334.5" y="853.5" width="18" height="18" as="geometry" />
        </mxCell>
        <mxCell id="bhbYjNJHL-G9m__CyBwY-515" value="C/G" style="text;html=1;align=center;verticalAlign=middle;resizable=0;points=[];autosize=1;strokeColor=none;fillColor=none;" parent="1" vertex="1">
          <mxGeometry x="357.5" y="853.5" width="32" height="18" as="geometry" />
        </mxCell>
        <mxCell id="bhbYjNJHL-G9m__CyBwY-516" value="N/2个" style="text;html=1;align=center;verticalAlign=middle;resizable=0;points=[];autosize=1;strokeColor=none;fillColor=none;" parent="1" vertex="1">
          <mxGeometry x="333" y="787.5" width="40" height="18" as="geometry" />
        </mxCell>
        <mxCell id="bhbYjNJHL-G9m__CyBwY-522" value="" style="html=1;whiteSpace=wrap;shape=isoCube2;backgroundOutline=1;isoAngle=15;container=0;fillColor=#f8cecc;strokeColor=#b85450;" parent="1" vertex="1">
          <mxGeometry x="466" y="735" width="102" height="131" as="geometry">
            <mxRectangle x="120" y="470" width="50" height="44" as="alternateBounds" />
          </mxGeometry>
        </mxCell>
        <mxCell id="bhbYjNJHL-G9m__CyBwY-523" value="H&lt;sub&gt;new&lt;/sub&gt;" style="text;html=1;align=center;verticalAlign=middle;resizable=0;points=[];autosize=1;strokeColor=none;fillColor=none;" parent="1" vertex="1">
          <mxGeometry x="429" y="796" width="37" height="23" as="geometry" />
        </mxCell>
        <mxCell id="bhbYjNJHL-G9m__CyBwY-524" value="W&lt;span style=&quot;font-size: 10px&quot;&gt;new&lt;/span&gt;" style="text;html=1;align=center;verticalAlign=middle;resizable=0;points=[];autosize=1;strokeColor=none;fillColor=none;" parent="1" vertex="1">
          <mxGeometry x="466" y="862" width="40" height="20" as="geometry" />
        </mxCell>
        <mxCell id="bhbYjNJHL-G9m__CyBwY-525" value="N/2" style="text;html=1;align=center;verticalAlign=middle;resizable=0;points=[];autosize=1;strokeColor=none;fillColor=none;" parent="1" vertex="1">
          <mxGeometry x="538" y="859" width="28" height="18" as="geometry" />
        </mxCell>
        <mxCell id="bhbYjNJHL-G9m__CyBwY-526" value="" style="html=1;whiteSpace=wrap;shape=isoCube2;backgroundOutline=1;isoAngle=15;container=0;fillColor=#f8cecc;strokeColor=#b85450;" parent="1" vertex="1">
          <mxGeometry x="464" y="893" width="102" height="131" as="geometry">
            <mxRectangle x="120" y="470" width="50" height="44" as="alternateBounds" />
          </mxGeometry>
        </mxCell>
        <mxCell id="bhbYjNJHL-G9m__CyBwY-527" value="H&lt;sub&gt;new&lt;/sub&gt;" style="text;html=1;align=center;verticalAlign=middle;resizable=0;points=[];autosize=1;strokeColor=none;fillColor=none;" parent="1" vertex="1">
          <mxGeometry x="427" y="954" width="37" height="23" as="geometry" />
        </mxCell>
        <mxCell id="bhbYjNJHL-G9m__CyBwY-528" value="W&lt;span style=&quot;font-size: 10px&quot;&gt;new&lt;/span&gt;" style="text;html=1;align=center;verticalAlign=middle;resizable=0;points=[];autosize=1;strokeColor=none;fillColor=none;" parent="1" vertex="1">
          <mxGeometry x="464" y="1020" width="40" height="20" as="geometry" />
        </mxCell>
        <mxCell id="bhbYjNJHL-G9m__CyBwY-529" value="N/2" style="text;html=1;align=center;verticalAlign=middle;resizable=0;points=[];autosize=1;strokeColor=none;fillColor=none;" parent="1" vertex="1">
          <mxGeometry x="536" y="1017" width="28" height="18" as="geometry" />
        </mxCell>
        <mxCell id="bhbYjNJHL-G9m__CyBwY-530" value="" style="endArrow=classic;html=1;rounded=0;" parent="1" edge="1">
          <mxGeometry width="50" height="50" relative="1" as="geometry">
            <mxPoint x="241" y="812" as="sourcePoint" />
            <mxPoint x="318" y="812" as="targetPoint" />
          </mxGeometry>
        </mxCell>
        <mxCell id="bhbYjNJHL-G9m__CyBwY-531" value="" style="endArrow=classic;html=1;rounded=0;" parent="1" edge="1">
          <mxGeometry width="50" height="50" relative="1" as="geometry">
            <mxPoint x="184" y="954" as="sourcePoint" />
            <mxPoint x="310" y="954" as="targetPoint" />
          </mxGeometry>
        </mxCell>
        <mxCell id="bhbYjNJHL-G9m__CyBwY-534" value="" style="endArrow=classic;html=1;rounded=0;" parent="1" edge="1">
          <mxGeometry width="50" height="50" relative="1" as="geometry">
            <mxPoint x="578" y="783" as="sourcePoint" />
            <mxPoint x="662" y="844" as="targetPoint" />
          </mxGeometry>
        </mxCell>
        <mxCell id="bhbYjNJHL-G9m__CyBwY-535" value="" style="endArrow=classic;html=1;rounded=0;" parent="1" edge="1">
          <mxGeometry width="50" height="50" relative="1" as="geometry">
            <mxPoint x="575.5" y="960.5" as="sourcePoint" />
            <mxPoint x="665" y="928" as="targetPoint" />
          </mxGeometry>
        </mxCell>
        <mxCell id="bhbYjNJHL-G9m__CyBwY-536" value="" style="html=1;whiteSpace=wrap;shape=isoCube2;backgroundOutline=1;isoAngle=15;container=0;fillColor=#dae8fc;strokeColor=#6c8ebf;" parent="1" vertex="1">
          <mxGeometry x="137" y="1035" width="90" height="190" as="geometry">
            <mxRectangle x="120" y="470" width="50" height="44" as="alternateBounds" />
          </mxGeometry>
        </mxCell>
        <mxCell id="bhbYjNJHL-G9m__CyBwY-537" value="H" style="text;html=1;align=center;verticalAlign=middle;resizable=0;points=[];autosize=1;strokeColor=none;fillColor=none;" parent="1" vertex="1">
          <mxGeometry x="106" y="1126" width="19" height="18" as="geometry" />
        </mxCell>
        <mxCell id="bhbYjNJHL-G9m__CyBwY-538" value="W" style="text;html=1;align=center;verticalAlign=middle;resizable=0;points=[];autosize=1;strokeColor=none;fillColor=none;" parent="1" vertex="1">
          <mxGeometry x="144" y="1212" width="21" height="18" as="geometry" />
        </mxCell>
        <mxCell id="bhbYjNJHL-G9m__CyBwY-543" value="" style="html=1;whiteSpace=wrap;shape=isoCube2;backgroundOutline=1;isoAngle=15;container=0;fillColor=#d5e8d4;strokeColor=#82b366;" parent="1" vertex="1">
          <mxGeometry x="329" y="1125" width="73" height="81" as="geometry">
            <mxRectangle x="120" y="470" width="50" height="44" as="alternateBounds" />
          </mxGeometry>
        </mxCell>
        <mxCell id="bhbYjNJHL-G9m__CyBwY-544" value="K" style="text;html=1;align=center;verticalAlign=middle;resizable=0;points=[];autosize=1;strokeColor=none;fillColor=none;" parent="1" vertex="1">
          <mxGeometry x="306" y="1153" width="18" height="18" as="geometry" />
        </mxCell>
        <mxCell id="bhbYjNJHL-G9m__CyBwY-545" value="K" style="text;html=1;align=center;verticalAlign=middle;resizable=0;points=[];autosize=1;strokeColor=none;fillColor=none;" parent="1" vertex="1">
          <mxGeometry x="330" y="1199" width="18" height="18" as="geometry" />
        </mxCell>
        <mxCell id="bhbYjNJHL-G9m__CyBwY-546" value="C/2" style="text;html=1;align=center;verticalAlign=middle;resizable=0;points=[];autosize=1;strokeColor=none;fillColor=none;" parent="1" vertex="1">
          <mxGeometry x="362" y="1210" width="28" height="18" as="geometry" />
        </mxCell>
        <mxCell id="bhbYjNJHL-G9m__CyBwY-547" value="1个" style="text;html=1;align=center;verticalAlign=middle;resizable=0;points=[];autosize=1;strokeColor=none;fillColor=none;" parent="1" vertex="1">
          <mxGeometry x="352" y="1090" width="28" height="18" as="geometry" />
        </mxCell>
        <mxCell id="bhbYjNJHL-G9m__CyBwY-550" value="" style="endArrow=none;dashed=1;html=1;rounded=0;entryX=0.752;entryY=0.172;entryDx=0;entryDy=0;entryPerimeter=0;" parent="1" target="bhbYjNJHL-G9m__CyBwY-536" edge="1">
          <mxGeometry width="50" height="50" relative="1" as="geometry">
            <mxPoint x="163" y="1045" as="sourcePoint" />
            <mxPoint x="213" y="995" as="targetPoint" />
          </mxGeometry>
        </mxCell>
        <mxCell id="bhbYjNJHL-G9m__CyBwY-551" value="" style="endArrow=none;dashed=1;html=1;rounded=0;entryX=0.748;entryY=0.17;entryDx=0;entryDy=0;entryPerimeter=0;exitX=0.769;exitY=0.932;exitDx=0;exitDy=0;exitPerimeter=0;" parent="1" source="bhbYjNJHL-G9m__CyBwY-536" target="bhbYjNJHL-G9m__CyBwY-536" edge="1">
          <mxGeometry width="50" height="50" relative="1" as="geometry">
            <mxPoint x="231" y="1128" as="sourcePoint" />
            <mxPoint x="281" y="1078" as="targetPoint" />
          </mxGeometry>
        </mxCell>
        <mxCell id="bhbYjNJHL-G9m__CyBwY-552" value="" style="endArrow=none;dashed=1;html=1;rounded=0;exitX=0.27;exitY=0.086;exitDx=0;exitDy=0;exitPerimeter=0;entryX=0.759;entryY=0.319;entryDx=0;entryDy=0;entryPerimeter=0;" parent="1" source="bhbYjNJHL-G9m__CyBwY-543" target="bhbYjNJHL-G9m__CyBwY-543" edge="1">
          <mxGeometry width="50" height="50" relative="1" as="geometry">
            <mxPoint x="337" y="1169" as="sourcePoint" />
            <mxPoint x="387" y="1119" as="targetPoint" />
          </mxGeometry>
        </mxCell>
        <mxCell id="bhbYjNJHL-G9m__CyBwY-554" value="" style="endArrow=none;dashed=1;html=1;rounded=0;entryX=0.75;entryY=0.318;entryDx=0;entryDy=0;entryPerimeter=0;exitX=0.757;exitY=0.874;exitDx=0;exitDy=0;exitPerimeter=0;" parent="1" source="bhbYjNJHL-G9m__CyBwY-543" target="bhbYjNJHL-G9m__CyBwY-543" edge="1">
          <mxGeometry width="50" height="50" relative="1" as="geometry">
            <mxPoint x="378" y="1203" as="sourcePoint" />
            <mxPoint x="428" y="1153" as="targetPoint" />
          </mxGeometry>
        </mxCell>
        <mxCell id="bhbYjNJHL-G9m__CyBwY-555" value="C/2" style="text;html=1;align=center;verticalAlign=middle;resizable=0;points=[];autosize=1;strokeColor=none;fillColor=none;" parent="1" vertex="1">
          <mxGeometry x="392" y="1196" width="28" height="18" as="geometry" />
        </mxCell>
        <mxCell id="bhbYjNJHL-G9m__CyBwY-556" value="C/2" style="text;html=1;align=center;verticalAlign=middle;resizable=0;points=[];autosize=1;strokeColor=none;fillColor=none;" parent="1" vertex="1">
          <mxGeometry x="182" y="1228" width="28" height="18" as="geometry" />
        </mxCell>
        <mxCell id="bhbYjNJHL-G9m__CyBwY-557" value="C/2" style="text;html=1;align=center;verticalAlign=middle;resizable=0;points=[];autosize=1;strokeColor=none;fillColor=none;" parent="1" vertex="1">
          <mxGeometry x="213" y="1214" width="28" height="18" as="geometry" />
        </mxCell>
        <mxCell id="bhbYjNJHL-G9m__CyBwY-558" value="" style="html=1;whiteSpace=wrap;shape=isoCube2;backgroundOutline=1;isoAngle=15;container=0;fillColor=#f8cecc;strokeColor=#b85450;" parent="1" vertex="1">
          <mxGeometry x="532.5" y="1060" width="132" height="168" as="geometry">
            <mxRectangle x="120" y="470" width="50" height="44" as="alternateBounds" />
          </mxGeometry>
        </mxCell>
        <mxCell id="bhbYjNJHL-G9m__CyBwY-559" value="W&lt;span style=&quot;font-size: 10px&quot;&gt;new&lt;/span&gt;" style="text;html=1;align=center;verticalAlign=middle;resizable=0;points=[];autosize=1;strokeColor=none;fillColor=none;" parent="1" vertex="1">
          <mxGeometry x="530.5" y="1226" width="40" height="20" as="geometry" />
        </mxCell>
        <mxCell id="bhbYjNJHL-G9m__CyBwY-560" value="H&lt;sub&gt;new&lt;/sub&gt;" style="text;html=1;align=center;verticalAlign=middle;resizable=0;points=[];autosize=1;strokeColor=none;fillColor=none;" parent="1" vertex="1">
          <mxGeometry x="486" y="1138" width="37" height="23" as="geometry" />
        </mxCell>
        <mxCell id="bhbYjNJHL-G9m__CyBwY-561" value="C" style="text;html=1;align=center;verticalAlign=middle;resizable=0;points=[];autosize=1;strokeColor=none;fillColor=none;" parent="1" vertex="1">
          <mxGeometry x="638.5" y="1228" width="19" height="18" as="geometry" />
        </mxCell>
        <mxCell id="bhbYjNJHL-G9m__CyBwY-562" value="" style="endArrow=none;dashed=1;html=1;rounded=0;exitX=0.27;exitY=0.088;exitDx=0;exitDy=0;exitPerimeter=0;entryX=0.76;entryY=0.274;entryDx=0;entryDy=0;entryPerimeter=0;" parent="1" source="bhbYjNJHL-G9m__CyBwY-558" target="bhbYjNJHL-G9m__CyBwY-558" edge="1">
          <mxGeometry width="50" height="50" relative="1" as="geometry">
            <mxPoint x="572" y="1097" as="sourcePoint" />
            <mxPoint x="622" y="1047" as="targetPoint" />
          </mxGeometry>
        </mxCell>
        <mxCell id="bhbYjNJHL-G9m__CyBwY-563" value="" style="endArrow=none;dashed=1;html=1;rounded=0;entryX=0.748;entryY=0.283;entryDx=0;entryDy=0;entryPerimeter=0;exitX=0.767;exitY=0.903;exitDx=0;exitDy=0;exitPerimeter=0;" parent="1" source="bhbYjNJHL-G9m__CyBwY-558" target="bhbYjNJHL-G9m__CyBwY-558" edge="1">
          <mxGeometry width="50" height="50" relative="1" as="geometry">
            <mxPoint x="623" y="1183" as="sourcePoint" />
            <mxPoint x="673" y="1133" as="targetPoint" />
          </mxGeometry>
        </mxCell>
        <mxCell id="bhbYjNJHL-G9m__CyBwY-564" value="" style="endArrow=classic;html=1;rounded=0;" parent="1" edge="1">
          <mxGeometry width="50" height="50" relative="1" as="geometry">
            <mxPoint x="261" y="1133" as="sourcePoint" />
            <mxPoint x="319" y="1133" as="targetPoint" />
          </mxGeometry>
        </mxCell>
        <mxCell id="bhbYjNJHL-G9m__CyBwY-566" value="&lt;font style=&quot;font-size: 24px&quot;&gt;=&lt;/font&gt;" style="text;html=1;align=center;verticalAlign=middle;resizable=0;points=[];autosize=1;strokeColor=none;fillColor=none;" parent="1" vertex="1">
          <mxGeometry x="401" y="812" width="24" height="22" as="geometry" />
        </mxCell>
        <mxCell id="bhbYjNJHL-G9m__CyBwY-567" value="&lt;font style=&quot;font-size: 24px&quot;&gt;=&lt;/font&gt;" style="text;html=1;align=center;verticalAlign=middle;resizable=0;points=[];autosize=1;strokeColor=none;fillColor=none;" parent="1" vertex="1">
          <mxGeometry x="399" y="934" width="24" height="22" as="geometry" />
        </mxCell>
        <mxCell id="bhbYjNJHL-G9m__CyBwY-568" value="&lt;font style=&quot;font-size: 24px&quot;&gt;=&lt;/font&gt;" style="text;html=1;align=center;verticalAlign=middle;resizable=0;points=[];autosize=1;strokeColor=none;fillColor=none;" parent="1" vertex="1">
          <mxGeometry x="440" y="1124" width="24" height="22" as="geometry" />
        </mxCell>
        <mxCell id="bhbYjNJHL-G9m__CyBwY-570" value="" style="rounded=0;whiteSpace=wrap;html=1;fontSize=24;fillColor=#ffe6cc;strokeColor=#d79b00;" parent="1" vertex="1">
          <mxGeometry x="154" y="1346" width="120" height="60" as="geometry" />
        </mxCell>
        <mxCell id="bhbYjNJHL-G9m__CyBwY-571" value="" style="rounded=0;whiteSpace=wrap;html=1;fontSize=24;fillColor=#e1d5e7;strokeColor=#9673a6;" parent="1" vertex="1">
          <mxGeometry x="164" y="1356" width="120" height="60" as="geometry" />
        </mxCell>
        <mxCell id="bhbYjNJHL-G9m__CyBwY-572" value="" style="rounded=0;whiteSpace=wrap;html=1;fontSize=24;fillColor=#d5e8d4;strokeColor=#82b366;" parent="1" vertex="1">
          <mxGeometry x="174" y="1366" width="120" height="60" as="geometry" />
        </mxCell>
        <mxCell id="bhbYjNJHL-G9m__CyBwY-573" value="" style="rounded=0;whiteSpace=wrap;html=1;fontSize=24;fillColor=#dae8fc;strokeColor=#6c8ebf;" parent="1" vertex="1">
          <mxGeometry x="184" y="1376" width="120" height="60" as="geometry" />
        </mxCell>
        <mxCell id="bhbYjNJHL-G9m__CyBwY-574" value="" style="rounded=0;whiteSpace=wrap;html=1;fontSize=24;fillColor=#e3c800;fontColor=#000000;strokeColor=#B09500;" parent="1" vertex="1">
          <mxGeometry x="194" y="1386" width="120" height="60" as="geometry" />
        </mxCell>
        <mxCell id="bhbYjNJHL-G9m__CyBwY-575" value="" style="rounded=0;whiteSpace=wrap;html=1;fontSize=24;fillColor=#a0522d;fontColor=#ffffff;strokeColor=#6D1F00;" parent="1" vertex="1">
          <mxGeometry x="204" y="1396" width="120" height="60" as="geometry" />
        </mxCell>
        <mxCell id="bhbYjNJHL-G9m__CyBwY-576" value="" style="rounded=0;whiteSpace=wrap;html=1;fontSize=24;fillColor=#fa6800;fontColor=#000000;strokeColor=#C73500;" parent="1" vertex="1">
          <mxGeometry x="214" y="1406" width="120" height="60" as="geometry" />
        </mxCell>
        <mxCell id="bhbYjNJHL-G9m__CyBwY-579" value="" style="endArrow=none;dashed=1;html=1;dashPattern=1 3;strokeWidth=2;rounded=0;fontSize=24;entryX=-0.008;entryY=0.008;entryDx=0;entryDy=0;entryPerimeter=0;exitX=0.002;exitY=0.022;exitDx=0;exitDy=0;exitPerimeter=0;" parent="1" source="bhbYjNJHL-G9m__CyBwY-576" target="bhbYjNJHL-G9m__CyBwY-570" edge="1">
          <mxGeometry width="50" height="50" relative="1" as="geometry">
            <mxPoint x="189" y="1454" as="sourcePoint" />
            <mxPoint x="239" y="1404" as="targetPoint" />
          </mxGeometry>
        </mxCell>
        <mxCell id="bhbYjNJHL-G9m__CyBwY-580" value="" style="endArrow=none;dashed=1;html=1;dashPattern=1 3;strokeWidth=2;rounded=0;fontSize=24;entryX=0.442;entryY=0;entryDx=0;entryDy=0;entryPerimeter=0;" parent="1" target="bhbYjNJHL-G9m__CyBwY-576" edge="1">
          <mxGeometry width="50" height="50" relative="1" as="geometry">
            <mxPoint x="214" y="1344" as="sourcePoint" />
            <mxPoint x="335" y="1303" as="targetPoint" />
          </mxGeometry>
        </mxCell>
        <mxCell id="bhbYjNJHL-G9m__CyBwY-581" value="" style="endArrow=none;dashed=1;html=1;dashPattern=1 3;strokeWidth=2;rounded=0;fontSize=24;entryX=0.992;entryY=0;entryDx=0;entryDy=0;entryPerimeter=0;" parent="1" target="bhbYjNJHL-G9m__CyBwY-576" edge="1">
          <mxGeometry width="50" height="50" relative="1" as="geometry">
            <mxPoint x="274" y="1344" as="sourcePoint" />
            <mxPoint x="375" y="1325" as="targetPoint" />
          </mxGeometry>
        </mxCell>
        <mxCell id="bhbYjNJHL-G9m__CyBwY-582" value="" style="endArrow=none;dashed=1;html=1;dashPattern=1 3;strokeWidth=2;rounded=0;fontSize=24;entryX=-0.004;entryY=0.549;entryDx=0;entryDy=0;entryPerimeter=0;exitX=-0.002;exitY=0.508;exitDx=0;exitDy=0;exitPerimeter=0;" parent="1" source="bhbYjNJHL-G9m__CyBwY-570" target="bhbYjNJHL-G9m__CyBwY-576" edge="1">
          <mxGeometry width="50" height="50" relative="1" as="geometry">
            <mxPoint x="67" y="1455" as="sourcePoint" />
            <mxPoint x="117" y="1405" as="targetPoint" />
          </mxGeometry>
        </mxCell>
        <mxCell id="bhbYjNJHL-G9m__CyBwY-583" value="" style="endArrow=none;dashed=1;html=1;dashPattern=1 3;strokeWidth=2;rounded=0;fontSize=24;entryX=-0.002;entryY=1.008;entryDx=0;entryDy=0;entryPerimeter=0;exitX=0;exitY=1;exitDx=0;exitDy=0;exitPerimeter=0;" parent="1" source="bhbYjNJHL-G9m__CyBwY-570" target="bhbYjNJHL-G9m__CyBwY-576" edge="1">
          <mxGeometry width="50" height="50" relative="1" as="geometry">
            <mxPoint x="268" y="1481" as="sourcePoint" />
            <mxPoint x="318" y="1431" as="targetPoint" />
          </mxGeometry>
        </mxCell>
        <mxCell id="bhbYjNJHL-G9m__CyBwY-584" value="1x1" style="text;html=1;align=center;verticalAlign=middle;resizable=0;points=[];autosize=1;strokeColor=none;fillColor=none;fontSize=24;" parent="1" vertex="1">
          <mxGeometry x="400" y="1407" width="48" height="33" as="geometry" />
        </mxCell>
        <mxCell id="bhbYjNJHL-G9m__CyBwY-585" value="&lt;font style=&quot;font-size: 13px&quot;&gt;N个&lt;/font&gt;" style="text;html=1;align=center;verticalAlign=middle;resizable=0;points=[];autosize=1;strokeColor=none;fillColor=none;fontSize=24;" parent="1" vertex="1">
          <mxGeometry x="410" y="1356" width="32" height="36" as="geometry" />
        </mxCell>
        <mxCell id="bhbYjNJHL-G9m__CyBwY-589" value="" style="rounded=0;whiteSpace=wrap;html=1;" parent="1" vertex="1">
          <mxGeometry x="503" y="1375" width="120" height="60" as="geometry" />
        </mxCell>
        <mxCell id="bhbYjNJHL-G9m__CyBwY-590" value="" style="rounded=0;whiteSpace=wrap;html=1;" parent="1" vertex="1">
          <mxGeometry x="513" y="1385" width="120" height="60" as="geometry" />
        </mxCell>
        <mxCell id="bhbYjNJHL-G9m__CyBwY-591" value="" style="rounded=0;whiteSpace=wrap;html=1;" parent="1" vertex="1">
          <mxGeometry x="523" y="1395" width="120" height="60" as="geometry" />
        </mxCell>
        <mxCell id="bhbYjNJHL-G9m__CyBwY-592" value="" style="rounded=0;whiteSpace=wrap;html=1;" parent="1" vertex="1">
          <mxGeometry x="533" y="1405" width="120" height="60" as="geometry" />
        </mxCell>
        <mxCell id="bhbYjNJHL-G9m__CyBwY-593" value="[C,H,W]" style="text;html=1;align=center;verticalAlign=middle;resizable=0;points=[];autosize=1;strokeColor=none;fillColor=none;" parent="1" vertex="1">
          <mxGeometry x="192" y="1319" width="52" height="18" as="geometry" />
        </mxCell>
        <mxCell id="bhbYjNJHL-G9m__CyBwY-598" value="[N,H,W]" style="text;html=1;align=center;verticalAlign=middle;resizable=0;points=[];autosize=1;strokeColor=none;fillColor=none;" parent="1" vertex="1">
          <mxGeometry x="533" y="1349" width="52" height="18" as="geometry" />
        </mxCell>
        <mxCell id="bhbYjNJHL-G9m__CyBwY-600" value="" style="shape=table;startSize=0;container=1;collapsible=0;childLayout=tableLayout;" parent="1" vertex="1">
          <mxGeometry x="92" y="56" width="159" height="28" as="geometry" />
        </mxCell>
        <mxCell id="bhbYjNJHL-G9m__CyBwY-601" value="" style="shape=tableRow;horizontal=0;startSize=0;swimlaneHead=0;swimlaneBody=0;top=0;left=0;bottom=0;right=0;collapsible=0;dropTarget=0;fillColor=none;points=[[0,0.5],[1,0.5]];portConstraint=eastwest;" parent="bhbYjNJHL-G9m__CyBwY-600" vertex="1">
          <mxGeometry width="159" height="28" as="geometry" />
        </mxCell>
        <mxCell id="bhbYjNJHL-G9m__CyBwY-602" value="123" style="shape=partialRectangle;html=1;whiteSpace=wrap;connectable=0;overflow=hidden;fillColor=#f8cecc;top=0;left=0;bottom=0;right=0;pointerEvents=1;strokeColor=#b85450;" parent="bhbYjNJHL-G9m__CyBwY-601" vertex="1">
          <mxGeometry width="53" height="28" as="geometry">
            <mxRectangle width="53" height="28" as="alternateBounds" />
          </mxGeometry>
        </mxCell>
        <mxCell id="bhbYjNJHL-G9m__CyBwY-603" value="456" style="shape=partialRectangle;html=1;whiteSpace=wrap;connectable=0;overflow=hidden;fillColor=#d5e8d4;top=0;left=0;bottom=0;right=0;pointerEvents=1;strokeColor=#82b366;" parent="bhbYjNJHL-G9m__CyBwY-601" vertex="1">
          <mxGeometry x="53" width="53" height="28" as="geometry">
            <mxRectangle width="53" height="28" as="alternateBounds" />
          </mxGeometry>
        </mxCell>
        <mxCell id="bhbYjNJHL-G9m__CyBwY-604" value="789" style="shape=partialRectangle;html=1;whiteSpace=wrap;connectable=0;overflow=hidden;fillColor=#dae8fc;top=0;left=0;bottom=0;right=0;pointerEvents=1;strokeColor=#6c8ebf;" parent="bhbYjNJHL-G9m__CyBwY-601" vertex="1">
          <mxGeometry x="106" width="53" height="28" as="geometry">
            <mxRectangle width="53" height="28" as="alternateBounds" />
          </mxGeometry>
        </mxCell>
        <mxCell id="bhbYjNJHL-G9m__CyBwY-605" value="通道1" style="text;html=1;align=center;verticalAlign=middle;resizable=0;points=[];autosize=1;strokeColor=none;fillColor=none;" parent="1" vertex="1">
          <mxGeometry x="97" y="28" width="40" height="18" as="geometry" />
        </mxCell>
        <mxCell id="bhbYjNJHL-G9m__CyBwY-607" value="通道2" style="text;html=1;align=center;verticalAlign=middle;resizable=0;points=[];autosize=1;strokeColor=none;fillColor=none;" parent="1" vertex="1">
          <mxGeometry x="152" y="28" width="40" height="18" as="geometry" />
        </mxCell>
        <mxCell id="bhbYjNJHL-G9m__CyBwY-608" value="通道3" style="text;html=1;align=center;verticalAlign=middle;resizable=0;points=[];autosize=1;strokeColor=none;fillColor=none;" parent="1" vertex="1">
          <mxGeometry x="209" y="28" width="40" height="18" as="geometry" />
        </mxCell>
        <mxCell id="bhbYjNJHL-G9m__CyBwY-622" value="" style="shape=table;startSize=0;container=1;collapsible=0;childLayout=tableLayout;" parent="1" vertex="1">
          <mxGeometry x="91" y="160" width="180" height="120" as="geometry" />
        </mxCell>
        <mxCell id="bhbYjNJHL-G9m__CyBwY-623" value="" style="shape=tableRow;horizontal=0;startSize=0;swimlaneHead=0;swimlaneBody=0;top=0;left=0;bottom=0;right=0;collapsible=0;dropTarget=0;fillColor=none;points=[[0,0.5],[1,0.5]];portConstraint=eastwest;" parent="bhbYjNJHL-G9m__CyBwY-622" vertex="1">
          <mxGeometry width="180" height="40" as="geometry" />
        </mxCell>
        <mxCell id="bhbYjNJHL-G9m__CyBwY-624" value="1" style="shape=partialRectangle;html=1;whiteSpace=wrap;connectable=0;overflow=hidden;fillColor=#f8cecc;top=0;left=0;bottom=0;right=0;pointerEvents=1;strokeColor=#b85450;" parent="bhbYjNJHL-G9m__CyBwY-623" vertex="1">
          <mxGeometry width="60" height="40" as="geometry">
            <mxRectangle width="60" height="40" as="alternateBounds" />
          </mxGeometry>
        </mxCell>
        <mxCell id="bhbYjNJHL-G9m__CyBwY-625" value="2" style="shape=partialRectangle;html=1;whiteSpace=wrap;connectable=0;overflow=hidden;fillColor=#f8cecc;top=0;left=0;bottom=0;right=0;pointerEvents=1;strokeColor=#b85450;" parent="bhbYjNJHL-G9m__CyBwY-623" vertex="1">
          <mxGeometry x="60" width="60" height="40" as="geometry">
            <mxRectangle width="60" height="40" as="alternateBounds" />
          </mxGeometry>
        </mxCell>
        <mxCell id="bhbYjNJHL-G9m__CyBwY-626" value="3" style="shape=partialRectangle;html=1;whiteSpace=wrap;connectable=0;overflow=hidden;fillColor=#f8cecc;top=0;left=0;bottom=0;right=0;pointerEvents=1;strokeColor=#b85450;" parent="bhbYjNJHL-G9m__CyBwY-623" vertex="1">
          <mxGeometry x="120" width="60" height="40" as="geometry">
            <mxRectangle width="60" height="40" as="alternateBounds" />
          </mxGeometry>
        </mxCell>
        <mxCell id="bhbYjNJHL-G9m__CyBwY-627" value="" style="shape=tableRow;horizontal=0;startSize=0;swimlaneHead=0;swimlaneBody=0;top=0;left=0;bottom=0;right=0;collapsible=0;dropTarget=0;fillColor=none;points=[[0,0.5],[1,0.5]];portConstraint=eastwest;" parent="bhbYjNJHL-G9m__CyBwY-622" vertex="1">
          <mxGeometry y="40" width="180" height="40" as="geometry" />
        </mxCell>
        <mxCell id="bhbYjNJHL-G9m__CyBwY-628" value="4" style="shape=partialRectangle;html=1;whiteSpace=wrap;connectable=0;overflow=hidden;fillColor=#d5e8d4;top=0;left=0;bottom=0;right=0;pointerEvents=1;strokeColor=#82b366;" parent="bhbYjNJHL-G9m__CyBwY-627" vertex="1">
          <mxGeometry width="60" height="40" as="geometry">
            <mxRectangle width="60" height="40" as="alternateBounds" />
          </mxGeometry>
        </mxCell>
        <mxCell id="bhbYjNJHL-G9m__CyBwY-629" value="5" style="shape=partialRectangle;html=1;whiteSpace=wrap;connectable=0;overflow=hidden;fillColor=#d5e8d4;top=0;left=0;bottom=0;right=0;pointerEvents=1;strokeColor=#82b366;" parent="bhbYjNJHL-G9m__CyBwY-627" vertex="1">
          <mxGeometry x="60" width="60" height="40" as="geometry">
            <mxRectangle width="60" height="40" as="alternateBounds" />
          </mxGeometry>
        </mxCell>
        <mxCell id="bhbYjNJHL-G9m__CyBwY-630" value="6" style="shape=partialRectangle;html=1;whiteSpace=wrap;connectable=0;overflow=hidden;fillColor=#d5e8d4;top=0;left=0;bottom=0;right=0;pointerEvents=1;strokeColor=#82b366;" parent="bhbYjNJHL-G9m__CyBwY-627" vertex="1">
          <mxGeometry x="120" width="60" height="40" as="geometry">
            <mxRectangle width="60" height="40" as="alternateBounds" />
          </mxGeometry>
        </mxCell>
        <mxCell id="bhbYjNJHL-G9m__CyBwY-631" value="" style="shape=tableRow;horizontal=0;startSize=0;swimlaneHead=0;swimlaneBody=0;top=0;left=0;bottom=0;right=0;collapsible=0;dropTarget=0;fillColor=none;points=[[0,0.5],[1,0.5]];portConstraint=eastwest;" parent="bhbYjNJHL-G9m__CyBwY-622" vertex="1">
          <mxGeometry y="80" width="180" height="40" as="geometry" />
        </mxCell>
        <mxCell id="bhbYjNJHL-G9m__CyBwY-632" value="7" style="shape=partialRectangle;html=1;whiteSpace=wrap;connectable=0;overflow=hidden;fillColor=#dae8fc;top=0;left=0;bottom=0;right=0;pointerEvents=1;strokeColor=#6c8ebf;" parent="bhbYjNJHL-G9m__CyBwY-631" vertex="1">
          <mxGeometry width="60" height="40" as="geometry">
            <mxRectangle width="60" height="40" as="alternateBounds" />
          </mxGeometry>
        </mxCell>
        <mxCell id="bhbYjNJHL-G9m__CyBwY-633" value="8" style="shape=partialRectangle;html=1;whiteSpace=wrap;connectable=0;overflow=hidden;fillColor=#dae8fc;top=0;left=0;bottom=0;right=0;pointerEvents=1;strokeColor=#6c8ebf;" parent="bhbYjNJHL-G9m__CyBwY-631" vertex="1">
          <mxGeometry x="60" width="60" height="40" as="geometry">
            <mxRectangle width="60" height="40" as="alternateBounds" />
          </mxGeometry>
        </mxCell>
        <mxCell id="bhbYjNJHL-G9m__CyBwY-634" value="9" style="shape=partialRectangle;html=1;whiteSpace=wrap;connectable=0;overflow=hidden;fillColor=#dae8fc;top=0;left=0;bottom=0;right=0;pointerEvents=1;strokeColor=#6c8ebf;" parent="bhbYjNJHL-G9m__CyBwY-631" vertex="1">
          <mxGeometry x="120" width="60" height="40" as="geometry">
            <mxRectangle width="60" height="40" as="alternateBounds" />
          </mxGeometry>
        </mxCell>
        <mxCell id="bhbYjNJHL-G9m__CyBwY-635" value="通道" style="text;html=1;align=center;verticalAlign=middle;resizable=0;points=[];autosize=1;strokeColor=none;fillColor=none;" parent="1" vertex="1">
          <mxGeometry x="50" y="212" width="34" height="18" as="geometry" />
        </mxCell>
        <mxCell id="bhbYjNJHL-G9m__CyBwY-636" value="分组" style="text;html=1;align=center;verticalAlign=middle;resizable=0;points=[];autosize=1;strokeColor=none;fillColor=none;" parent="1" vertex="1">
          <mxGeometry x="143" y="131" width="42" height="26" as="geometry" />
        </mxCell>
        <mxCell id="bhbYjNJHL-G9m__CyBwY-637" value="" style="endArrow=classic;html=1;rounded=0;" parent="1" edge="1">
          <mxGeometry relative="1" as="geometry">
            <mxPoint x="284" y="223" as="sourcePoint" />
            <mxPoint x="384" y="223" as="targetPoint" />
          </mxGeometry>
        </mxCell>
        <mxCell id="bhbYjNJHL-G9m__CyBwY-638" value="转置" style="edgeLabel;resizable=0;html=1;align=center;verticalAlign=middle;strokeColor=#000000;strokeWidth=1;" parent="bhbYjNJHL-G9m__CyBwY-637" connectable="0" vertex="1">
          <mxGeometry relative="1" as="geometry" />
        </mxCell>
        <mxCell id="bhbYjNJHL-G9m__CyBwY-639" value="" style="shape=table;startSize=0;container=1;collapsible=0;childLayout=tableLayout;strokeColor=#000000;strokeWidth=1;" parent="1" vertex="1">
          <mxGeometry x="402" y="159" width="180" height="120" as="geometry" />
        </mxCell>
        <mxCell id="bhbYjNJHL-G9m__CyBwY-640" value="" style="shape=tableRow;horizontal=0;startSize=0;swimlaneHead=0;swimlaneBody=0;top=0;left=0;bottom=0;right=0;collapsible=0;dropTarget=0;fillColor=none;points=[[0,0.5],[1,0.5]];portConstraint=eastwest;strokeColor=#000000;strokeWidth=1;" parent="bhbYjNJHL-G9m__CyBwY-639" vertex="1">
          <mxGeometry width="180" height="40" as="geometry" />
        </mxCell>
        <mxCell id="bhbYjNJHL-G9m__CyBwY-641" value="1" style="shape=partialRectangle;html=1;whiteSpace=wrap;connectable=0;overflow=hidden;fillColor=#f8cecc;top=0;left=0;bottom=0;right=0;pointerEvents=1;strokeColor=#b85450;strokeWidth=1;" parent="bhbYjNJHL-G9m__CyBwY-640" vertex="1">
          <mxGeometry width="60" height="40" as="geometry">
            <mxRectangle width="60" height="40" as="alternateBounds" />
          </mxGeometry>
        </mxCell>
        <mxCell id="bhbYjNJHL-G9m__CyBwY-642" value="4" style="shape=partialRectangle;html=1;whiteSpace=wrap;connectable=0;overflow=hidden;fillColor=#d5e8d4;top=0;left=0;bottom=0;right=0;pointerEvents=1;strokeColor=#82b366;strokeWidth=1;" parent="bhbYjNJHL-G9m__CyBwY-640" vertex="1">
          <mxGeometry x="60" width="60" height="40" as="geometry">
            <mxRectangle width="60" height="40" as="alternateBounds" />
          </mxGeometry>
        </mxCell>
        <mxCell id="bhbYjNJHL-G9m__CyBwY-643" value="7" style="shape=partialRectangle;html=1;whiteSpace=wrap;connectable=0;overflow=hidden;fillColor=#dae8fc;top=0;left=0;bottom=0;right=0;pointerEvents=1;strokeColor=#6c8ebf;strokeWidth=1;" parent="bhbYjNJHL-G9m__CyBwY-640" vertex="1">
          <mxGeometry x="120" width="60" height="40" as="geometry">
            <mxRectangle width="60" height="40" as="alternateBounds" />
          </mxGeometry>
        </mxCell>
        <mxCell id="bhbYjNJHL-G9m__CyBwY-644" value="" style="shape=tableRow;horizontal=0;startSize=0;swimlaneHead=0;swimlaneBody=0;top=0;left=0;bottom=0;right=0;collapsible=0;dropTarget=0;fillColor=none;points=[[0,0.5],[1,0.5]];portConstraint=eastwest;strokeColor=#000000;strokeWidth=1;" parent="bhbYjNJHL-G9m__CyBwY-639" vertex="1">
          <mxGeometry y="40" width="180" height="40" as="geometry" />
        </mxCell>
        <mxCell id="bhbYjNJHL-G9m__CyBwY-645" value="2" style="shape=partialRectangle;html=1;whiteSpace=wrap;connectable=0;overflow=hidden;fillColor=#f8cecc;top=0;left=0;bottom=0;right=0;pointerEvents=1;strokeColor=#b85450;strokeWidth=1;" parent="bhbYjNJHL-G9m__CyBwY-644" vertex="1">
          <mxGeometry width="60" height="40" as="geometry">
            <mxRectangle width="60" height="40" as="alternateBounds" />
          </mxGeometry>
        </mxCell>
        <mxCell id="bhbYjNJHL-G9m__CyBwY-646" value="5" style="shape=partialRectangle;html=1;whiteSpace=wrap;connectable=0;overflow=hidden;fillColor=#d5e8d4;top=0;left=0;bottom=0;right=0;pointerEvents=1;strokeColor=#82b366;strokeWidth=1;" parent="bhbYjNJHL-G9m__CyBwY-644" vertex="1">
          <mxGeometry x="60" width="60" height="40" as="geometry">
            <mxRectangle width="60" height="40" as="alternateBounds" />
          </mxGeometry>
        </mxCell>
        <mxCell id="bhbYjNJHL-G9m__CyBwY-647" value="8" style="shape=partialRectangle;html=1;whiteSpace=wrap;connectable=0;overflow=hidden;fillColor=#dae8fc;top=0;left=0;bottom=0;right=0;pointerEvents=1;strokeColor=#6c8ebf;strokeWidth=1;" parent="bhbYjNJHL-G9m__CyBwY-644" vertex="1">
          <mxGeometry x="120" width="60" height="40" as="geometry">
            <mxRectangle width="60" height="40" as="alternateBounds" />
          </mxGeometry>
        </mxCell>
        <mxCell id="bhbYjNJHL-G9m__CyBwY-648" value="" style="shape=tableRow;horizontal=0;startSize=0;swimlaneHead=0;swimlaneBody=0;top=0;left=0;bottom=0;right=0;collapsible=0;dropTarget=0;fillColor=none;points=[[0,0.5],[1,0.5]];portConstraint=eastwest;strokeColor=#000000;strokeWidth=1;" parent="bhbYjNJHL-G9m__CyBwY-639" vertex="1">
          <mxGeometry y="80" width="180" height="40" as="geometry" />
        </mxCell>
        <mxCell id="bhbYjNJHL-G9m__CyBwY-649" value="3" style="shape=partialRectangle;html=1;whiteSpace=wrap;connectable=0;overflow=hidden;fillColor=#f8cecc;top=0;left=0;bottom=0;right=0;pointerEvents=1;strokeColor=#b85450;strokeWidth=1;" parent="bhbYjNJHL-G9m__CyBwY-648" vertex="1">
          <mxGeometry width="60" height="40" as="geometry">
            <mxRectangle width="60" height="40" as="alternateBounds" />
          </mxGeometry>
        </mxCell>
        <mxCell id="bhbYjNJHL-G9m__CyBwY-650" value="6" style="shape=partialRectangle;html=1;whiteSpace=wrap;connectable=0;overflow=hidden;fillColor=#d5e8d4;top=0;left=0;bottom=0;right=0;pointerEvents=1;strokeColor=#82b366;strokeWidth=1;" parent="bhbYjNJHL-G9m__CyBwY-648" vertex="1">
          <mxGeometry x="60" width="60" height="40" as="geometry">
            <mxRectangle width="60" height="40" as="alternateBounds" />
          </mxGeometry>
        </mxCell>
        <mxCell id="bhbYjNJHL-G9m__CyBwY-651" value="9" style="shape=partialRectangle;html=1;whiteSpace=wrap;connectable=0;overflow=hidden;fillColor=#dae8fc;top=0;left=0;bottom=0;right=0;pointerEvents=1;strokeColor=#6c8ebf;strokeWidth=1;" parent="bhbYjNJHL-G9m__CyBwY-648" vertex="1">
          <mxGeometry x="120" width="60" height="40" as="geometry">
            <mxRectangle width="60" height="40" as="alternateBounds" />
          </mxGeometry>
        </mxCell>
        <mxCell id="bhbYjNJHL-G9m__CyBwY-653" value="" style="endArrow=classic;html=1;rounded=0;" parent="1" edge="1">
          <mxGeometry relative="1" as="geometry">
            <mxPoint x="202" y="99" as="sourcePoint" />
            <mxPoint x="202" y="155" as="targetPoint" />
          </mxGeometry>
        </mxCell>
        <mxCell id="bhbYjNJHL-G9m__CyBwY-654" value="拆分" style="edgeLabel;resizable=0;html=1;align=center;verticalAlign=middle;strokeColor=#000000;strokeWidth=1;" parent="bhbYjNJHL-G9m__CyBwY-653" connectable="0" vertex="1">
          <mxGeometry relative="1" as="geometry" />
        </mxCell>
        <mxCell id="bhbYjNJHL-G9m__CyBwY-659" value="" style="endArrow=classic;html=1;rounded=0;" parent="1" edge="1">
          <mxGeometry relative="1" as="geometry">
            <mxPoint x="508" y="148" as="sourcePoint" />
            <mxPoint x="508" y="99" as="targetPoint" />
          </mxGeometry>
        </mxCell>
        <mxCell id="bhbYjNJHL-G9m__CyBwY-660" value="组合" style="edgeLabel;resizable=0;html=1;align=center;verticalAlign=middle;strokeColor=#000000;strokeWidth=1;" parent="bhbYjNJHL-G9m__CyBwY-659" connectable="0" vertex="1">
          <mxGeometry relative="1" as="geometry" />
        </mxCell>
        <mxCell id="bhbYjNJHL-G9m__CyBwY-661" value="" style="shape=table;startSize=0;container=1;collapsible=0;childLayout=tableLayout;strokeColor=#000000;strokeWidth=1;" parent="1" vertex="1">
          <mxGeometry x="407" y="52" width="180" height="40" as="geometry" />
        </mxCell>
        <mxCell id="bhbYjNJHL-G9m__CyBwY-662" value="" style="shape=tableRow;horizontal=0;startSize=0;swimlaneHead=0;swimlaneBody=0;top=0;left=0;bottom=0;right=0;collapsible=0;dropTarget=0;fillColor=none;points=[[0,0.5],[1,0.5]];portConstraint=eastwest;strokeColor=#000000;strokeWidth=1;" parent="bhbYjNJHL-G9m__CyBwY-661" vertex="1">
          <mxGeometry width="180" height="40" as="geometry" />
        </mxCell>
        <mxCell id="bhbYjNJHL-G9m__CyBwY-663" value="147" style="shape=partialRectangle;html=1;whiteSpace=wrap;connectable=0;overflow=hidden;fillColor=#ffe6cc;top=0;left=0;bottom=0;right=0;pointerEvents=1;strokeColor=#d79b00;strokeWidth=1;" parent="bhbYjNJHL-G9m__CyBwY-662" vertex="1">
          <mxGeometry width="60" height="40" as="geometry">
            <mxRectangle width="60" height="40" as="alternateBounds" />
          </mxGeometry>
        </mxCell>
        <mxCell id="bhbYjNJHL-G9m__CyBwY-664" value="258" style="shape=partialRectangle;html=1;whiteSpace=wrap;connectable=0;overflow=hidden;fillColor=#fff2cc;top=0;left=0;bottom=0;right=0;pointerEvents=1;strokeColor=#d6b656;strokeWidth=1;" parent="bhbYjNJHL-G9m__CyBwY-662" vertex="1">
          <mxGeometry x="60" width="60" height="40" as="geometry">
            <mxRectangle width="60" height="40" as="alternateBounds" />
          </mxGeometry>
        </mxCell>
        <mxCell id="bhbYjNJHL-G9m__CyBwY-665" value="369" style="shape=partialRectangle;html=1;whiteSpace=wrap;connectable=0;overflow=hidden;fillColor=#f5f5f5;top=0;left=0;bottom=0;right=0;pointerEvents=1;strokeColor=#666666;strokeWidth=1;fontColor=#333333;" parent="bhbYjNJHL-G9m__CyBwY-662" vertex="1">
          <mxGeometry x="120" width="60" height="40" as="geometry">
            <mxRectangle width="60" height="40" as="alternateBounds" />
          </mxGeometry>
        </mxCell>
        <mxCell id="bhbYjNJHL-G9m__CyBwY-667" value="通道" style="text;html=1;align=center;verticalAlign=middle;resizable=0;points=[];autosize=1;strokeColor=none;fillColor=none;" parent="1" vertex="1">
          <mxGeometry x="463" y="132" width="34" height="18" as="geometry" />
        </mxCell>
        <mxCell id="bhbYjNJHL-G9m__CyBwY-668" value="分组" style="text;html=1;align=center;verticalAlign=middle;resizable=0;points=[];autosize=1;strokeColor=none;fillColor=none;" parent="1" vertex="1">
          <mxGeometry x="360" y="194" width="34" height="18" as="geometry" />
        </mxCell>
        <mxCell id="bhbYjNJHL-G9m__CyBwY-670" value="分组1" style="text;html=1;align=center;verticalAlign=middle;resizable=0;points=[];autosize=1;strokeColor=none;fillColor=none;" parent="1" vertex="1">
          <mxGeometry x="422" y="25" width="40" height="18" as="geometry" />
        </mxCell>
        <mxCell id="bhbYjNJHL-G9m__CyBwY-671" value="分组2" style="text;html=1;align=center;verticalAlign=middle;resizable=0;points=[];autosize=1;strokeColor=none;fillColor=none;" parent="1" vertex="1">
          <mxGeometry x="477" y="25" width="40" height="18" as="geometry" />
        </mxCell>
        <mxCell id="bhbYjNJHL-G9m__CyBwY-672" value="分组3" style="text;html=1;align=center;verticalAlign=middle;resizable=0;points=[];autosize=1;strokeColor=none;fillColor=none;" parent="1" vertex="1">
          <mxGeometry x="534" y="25" width="40" height="18" as="geometry" />
        </mxCell>
        <mxCell id="Q3K0Lzon8IJF1G3gxKIF-1" value="N个" style="text;html=1;align=center;verticalAlign=middle;resizable=0;points=[];autosize=1;strokeColor=none;fillColor=none;" parent="1" vertex="1">
          <mxGeometry x="358" y="528" width="31" height="18" as="geometry" />
        </mxCell>
        <mxCell id="73wdKpE4HIGsvIhkYlfW-1" value="" style="whiteSpace=wrap;html=1;aspect=fixed;fillColor=#d5e8d4;strokeColor=#82b366;" parent="1" vertex="1">
          <mxGeometry x="297" y="362" width="43" height="43" as="geometry" />
        </mxCell>
        <mxCell id="73wdKpE4HIGsvIhkYlfW-2" value="" style="whiteSpace=wrap;html=1;aspect=fixed;fillColor=#d5e8d4;strokeColor=#82b366;" parent="1" vertex="1">
          <mxGeometry x="307" y="372" width="37" height="37" as="geometry" />
        </mxCell>
      </root>
    </mxGraphModel>
  </diagram>
</mxfile>
